# xmcd CD database file
#
# Track frame offsets:
#	150
#	16168
#	34367
#	63115
#	87974
#	108724
#	130770
#	148323
#	160670
#	178396
#	190882
#	206880
#
# Disc length: 3114 seconds
#
# Revision: 0
# Processed by: cddbd v1.5.2PL0 Copyright (c) Steve Scherf et al.
# Submitted via: CDex 1.70beta2
#
DISCID=af0c280c
DTITLE=Blues Delivery - Good Morning Blues
DYEAR=1900
DGENRE=Blues
TTITLE0=Fanny Mae (Levy, M. - Lewis, C. - Glasco, W.)
TTITLE1=Airplane Blues (Hopkins, S.)
TTITLE2=Cajun Moon (Cale, J.J.)
TTITLE3=You Can't Judge A Book (Dixon, W.J.)
TTITLE4=The Kokomo Medley (McDowell, F.)
TTITLE5=St. James Infirmary (Mills, I.)
TTITLE6=Crossroad Blues (Johnson, R.L.)
TTITLE7=St. Louis Blues (Handy, W.C.)
TTITLE8=One For My Baby (Arlen, H. - Mercer, J.)
TTITLE9=Cajun Blues (Chiavola, K. - Hill, E.)
TTITLE10=Good Morning Blues (Ledbetter, H.)
TTITLE11=Trouble In Mind (Jones, R.M.)
EXTD=
EXTT0=
EXTT1=
EXTT2=
EXTT3=
EXTT4=
EXTT5=
EXTT6=
EXTT7=
EXTT8=
EXTT9=
EXTT10=
EXTT11=
PLAYORDER=
